# Blender 4.1.0
# www.blender.org
o Next
v 0.900000 -0.900000 -0.450000
v 0.900000 0.000000 -0.450000
v 0.900000 -0.900000 0.450000
v 0.900000 0.000000 0.450000
v -5.000000 -0.900000 -0.450000
v -5.000000 0.000000 -0.450000
v -5.000000 -0.900000 0.450000
v -5.000000 0.000000 0.450000
v -0.000000 -0.900000 0.450000
v -0.000000 0.000000 0.450000
v -0.000000 -0.900000 -0.450000
v -0.000000 0.000000 -0.450000
v -4.100001 0.000000 0.450000
v -4.100001 -0.900000 -0.450000
v -4.100001 -0.900000 0.450000
v -4.100001 0.000000 -0.450000
v 0.900000 5.000000 -0.450000
v 0.900000 5.000000 0.450000
v -4.100001 5.000000 0.450000
v -5.000000 5.000000 0.450000
v -5.000000 5.000000 -0.450000
v -0.000000 5.000000 -0.450000
v -0.000000 5.000000 0.450000
v -4.100001 5.000000 -0.450000
v 0.900000 4.100000 0.450000
v -0.000000 4.100000 0.450000
v 0.900000 4.100000 -0.450000
v -0.000000 4.100000 -0.450000
v -5.000000 4.100000 0.450000
v -5.000000 4.100000 -0.450000
v -4.100001 4.100000 0.450000
v -4.100001 4.100000 -0.450000
vn 1.0000 -0.0000 -0.0000
vn -0.0000 -0.0000 1.0000
vn -1.0000 -0.0000 -0.0000
vn -0.0000 -0.0000 -1.0000
vn -0.0000 -1.0000 -0.0000
vn -0.0000 1.0000 -0.0000
vt 0.375000 0.000000
vt 0.625000 0.000000
vt 0.625000 0.250000
vt 0.375000 0.250000
vt 0.375000 0.500000
vt 0.625000 0.500000
vt 0.625000 0.750000
vt 0.375000 0.750000
vt 0.375000 1.000000
vt 0.625000 1.000000
vt 0.875000 0.500000
vt 0.875000 0.750000
vt 0.125000 0.500000
vt 0.125000 0.750000
s 0
f 1/1/1 2/2/1 4/3/1 3/4/1
f 15/5/2 13/6/2 8/6/2 7/5/2
f 7/5/3 8/6/3 6/7/3 5/8/3
f 11/9/4 12/10/4 2/10/4 1/9/4
f 15/5/5 7/5/5 5/8/5 14/8/5
f 26/3/2 25/3/2 18/3/2 23/3/2
f 13/6/6 10/11/6 12/12/6 16/7/6
f 3/13/5 9/13/5 11/14/5 1/14/5
f 14/8/4 16/7/4 12/10/4 11/9/4
f 3/4/2 4/3/2 10/3/2 9/4/2
f 5/8/4 6/7/4 16/7/4 14/8/4
f 30/7/3 29/6/3 20/6/3 21/7/3
f 9/13/5 15/5/5 14/8/5 11/14/5
f 9/4/2 10/3/2 13/6/2 15/5/2
f 23/11/6 18/11/6 17/12/6 22/12/6
f 20/6/6 19/6/6 24/7/6 21/7/6
f 25/3/1 27/2/1 17/2/1 18/3/1
f 27/10/4 28/10/4 22/10/4 17/10/4
f 26/11/5 31/6/5 32/7/5 28/12/5
f 29/6/2 31/6/2 19/6/2 20/6/2
f 22/10/4 28/12/4 32/7/4 24/7/4
f 32/7/4 30/7/4 21/7/4 24/7/4
f 12/12/3 10/11/3 26/11/3 28/12/3
f 2/10/4 12/10/4 28/10/4 27/10/4
f 4/3/1 2/2/1 27/2/1 25/3/1
f 10/3/2 4/3/2 25/3/2 26/3/2
f 16/7/4 6/7/4 30/7/4 32/7/4
f 13/6/1 16/7/1 32/7/1 31/6/1
f 8/6/2 13/6/2 31/6/2 29/6/2
f 6/7/3 8/6/3 29/6/3 30/7/3
f 22/10/6 24/7/6 19/6/6 23/11/6
f 31/6/2 26/11/2 23/3/2 19/6/2
